<?xml version="1.0" encoding="UTF-8" standalone="no"?>
<!-- Created with Inkscape (http://www.inkscape.org/) -->

<svg
   version="1.1"
   id="svg37406"
   width="533.33331"
   height="266.66666"
   viewBox="0 0 533.33331 266.66666"
   sodipodi:docname="TimiTitle.svg"
   inkscape:version="1.1.2 (0a00cf5339, 2022-02-04)"
   xmlns:inkscape="http://www.inkscape.org/namespaces/inkscape"
   xmlns:sodipodi="http://sodipodi.sourceforge.net/DTD/sodipodi-0.dtd"
   xmlns="http://www.w3.org/2000/svg"
   xmlns:svg="http://www.w3.org/2000/svg">
  <defs
     id="defs37410" />
  <sodipodi:namedview
     id="namedview37408"
     pagecolor="#ffffff"
     bordercolor="#666666"
     borderopacity="1.0"
     inkscape:pageshadow="2"
     inkscape:pageopacity="0.0"
     inkscape:pagecheckerboard="0"
     showgrid="false"
     inkscape:zoom="2"
     inkscape:cx="230"
     inkscape:cy="225.25"
     inkscape:window-width="1920"
     inkscape:window-height="1050"
     inkscape:window-x="0"
     inkscape:window-y="30"
     inkscape:window-maximized="1"
     inkscape:current-layer="g37412" />
  <g
     inkscape:groupmode="layer"
     inkscape:label="Image"
     id="g37412">
    <path
       style="fill:#feef00;fill-opacity:1;stroke-width:0.25"
       d="m 410.5,228.70696 c -0.825,-0.0404 -3.89217,-0.18943 -6.81594,-0.33113 -5.61184,-0.27197 -7.06124,-0.57064 -7.59322,-1.56465 -0.27437,-0.51267 -0.42612,-9.81813 -0.95585,-58.6106 -0.21074,-19.41184 -0.31317,-23.35726 -0.64902,-25 -2.45293,-11.99791 -11.71451,-21.1714 -24.86097,-24.62452 -2.82512,-0.74206 -9.96851,-0.82707 -12.42157,-0.14782 -6.06197,1.67857 -11.46237,5.35668 -14.55659,9.91422 -1.44475,2.12799 -3.37462,6.22892 -3.99889,8.49751 -0.57247,2.08036 -0.70214,5.74187 -1.40004,39.53503 -0.74878,36.25683 -0.87851,41.04333 -1.12489,41.5037 -0.13612,0.25434 -0.45465,0.52819 -0.70784,0.60855 -0.56503,0.17933 -12.45351,-1.00859 -15.03413,-1.50224 -1.41372,-0.27044 -2.03664,-0.52528 -2.55741,-1.04627 l -0.68846,-0.68874 -0.38453,-39.875 c -0.42811,-44.39505 -0.26099,-41.00991 -2.25833,-45.74188 -4.24033,-10.04586 -11.12041,-17.26939 -19.27516,-20.23736 -3.55145,-1.29257 -5.76806,-1.63383 -10.59216,-1.63072 -3.95921,0.003 -4.63636,0.0691 -7.125,0.70051 -5.18911,1.31652 -10.51146,4.40352 -13.75995,7.98086 -1.92704,2.12212 -3.81376,5.04677 -4.22779,6.55359 -0.27945,1.01703 -0.39022,8.6584 -0.59435,41 -0.22614,35.83076 -0.29139,39.86459 -0.66178,40.91223 -0.69348,1.96145 -0.98815,2.09912 -4.31214,2.01465 -4.90072,-0.12454 -13.18376,-0.97023 -14.11423,-1.44105 -1.43519,-0.72621 -2.42246,-1.59169 -3.06355,-2.68562 -0.59587,-1.01676 -0.62551,-1.27614 -0.76348,-6.67903 -0.1613,-6.31698 -0.62318,-75.70558 -0.64017,-96.173391 -0.0121,-14.542414 -0.005,-14.620735 1.4183,-14.977874 0.73503,-0.184481 6.99236,0.461069 11.46914,1.183237 8.12834,1.311216 8.83834,1.952074 9.11495,8.227301 0.088,1.996749 0.24971,3.775564 0.35932,3.952921 0.32482,0.525559 1.33882,0.802787 2.00705,0.548726 0.33348,-0.126788 1.65536,-1.028926 2.9375,-2.00475 2.86859,-2.183241 7.8993,-4.716012 11.38964,-5.734252 13.56026,-3.955943 28.47098,-0.01937 42.56654,11.237982 3.18128,2.54071 9.03968,8.36956 11.21149,11.15493 1.76894,2.26868 2.94974,3.01924 4.31909,2.74537 0.55517,-0.11103 1.53723,-0.87434 3.19782,-2.48552 6.26637,-6.0799 13.77548,-9.98505 21.74053,-11.30628 3.74031,-0.62044 10.36548,-0.39955 14.03107,0.46781 12.21805,2.89107 23.61047,9.42783 32.96585,18.9152 1.42497,1.44508 3.25946,3.51465 4.07664,4.59906 1.72295,2.28636 5.27565,9.27487 6.30542,12.40335 0.89641,2.72335 1.00603,5.04587 1.5163,32.125 1.092,57.95037 1.08464,56.46676 0.28454,57.34954 -0.4966,0.54792 -1.11033,0.58591 -5.77375,0.35742 z"
       id="path49523" />
    <path
       style="fill:#feef00;fill-opacity:1;stroke-width:0.5"
       d="m 204.66142,199.8696 c -6.90538,-0.7516 -7.80006,-1.00218 -8.54447,-2.39314 -0.75736,-1.41514 -0.8551,-5.8693 -1.4444,-65.82971 -0.35697,-36.321225 -0.34785,-51.370545 0.0314,-51.749995 0.80719,-0.80771 14.77491,-0.69798 17.12811,0.13456 3.55724,1.25852 3.28513,-3.258812 3.67094,60.941285 0.28237,46.98748 0.22627,58.23852 -0.2935,58.86481 -0.7562,0.91117 -2.42554,0.91626 -10.54805,0.0322 z"
       id="path50068" />
    <path
       style="fill:#feef00;fill-opacity:1;stroke-width:0.5"
       d="m 447.97607,234.19961 c -3.85,-0.34905 -7.50341,-0.75578 -8.11868,-0.90385 -2.65127,-0.63803 -2.54956,0.90337 -3.10183,-47.00823 -0.75405,-65.41637 -0.74958,-71.798 0.0507,-72.30521 0.94566,-0.59938 13.79331,-0.53889 16.00485,0.0754 1.00924,0.28032 2.35924,0.93414 3,1.45294 l 1.16496,0.94327 0.29607,58.41927 c 0.16285,32.1306 0.20398,58.67718 0.0914,58.9924 -0.33594,0.94075 -2.03044,1.00105 -9.38748,0.33405 z"
       id="path50224" />
    <path
       style="fill:#feef00;fill-opacity:1;stroke-width:0.707107"
       d="m 121.72288,187.86689 c -4.27799,-0.56804 -8.16396,-1.40968 -8.63548,-1.8703 -0.64962,-0.63461 -1.04279,-17.62565 -1.62291,-70.13397 -0.71565,-64.775064 -0.84734,-69.379 -2.01833,-70.561465 -0.95339,-0.962743 -5.12742,-1.849749 -17.468973,-3.712265 -20.90853,-3.155396 -29.228,-4.57717 -31.22422,-5.336129 -1.53881,-0.585055 -1.60904,-0.94979 -1.60904,-8.356924 0,-8.40997 0.6238,-10.02564 3.6724,-9.511723 0.897,0.151212 26.13216,3.460486 56.078133,7.353942 67.67563,8.798917 96.29988,12.598877 98.84212,13.121612 3.56693,0.733426 4.18743,2.718373 3.62555,11.598085 -0.44992,7.110134 -0.65019,7.96976 -2.00012,8.584828 -1.08916,0.496258 -12.69249,-0.990124 -42.35447,-5.425591 -32.4029,-4.845329 -41.06698,-5.932612 -41.8823,-5.255948 -0.88656,0.73578 -1.02799,10.472003 -1.02799,70.770138 v 69.91699 l -2.2981,-0.0742 c -1.26395,-0.0408 -5.79827,-0.53899 -10.07627,-1.10704 z"
       id="path51509" />
  </g>
</svg>
